<svg width="31" height="31" viewBox="0 0 31 31" fill="none" xmlns="http://www.w3.org/2000/svg">
<path d="M5.42499 3.61668C5.42499 2.90332 6.00329 2.32501 6.71665 2.32501H24.5417C25.255 2.32501 25.8333 2.90332 25.8333 3.61668V5.16668C25.8333 5.88004 25.255 6.45835 24.5417 6.45835H6.71665C6.00329 6.45835 5.42499 5.88004 5.42499 5.16668V3.61668Z" fill="#FF671F"/>
<path d="M5.42499 25.575C5.42499 24.8616 6.00329 24.2833 6.71665 24.2833H24.5417C25.255 24.2833 25.8333 24.8616 25.8333 25.575V27.125C25.8333 27.8383 25.255 28.4167 24.5417 28.4167H6.71665C6.00329 28.4167 5.42499 27.8383 5.42499 27.125V25.575Z" fill="#FF671F"/>
<path d="M16.2835 17.711C16.2157 18.0058 16.1366 18.2723 16.0492 18.5052C15.9232 18.8414 15.7952 19.0666 15.6911 19.2013C15.587 19.0666 15.459 18.8414 15.3329 18.5052C15.2456 18.2723 15.1665 18.0058 15.0987 17.7111C15.2935 17.6313 15.4913 17.5439 15.6911 17.4492C15.8909 17.5439 16.0887 17.6313 16.2835 17.711Z" fill="#FF671F"/>
<path d="M15.6911 16.2939C15.9695 16.1472 16.2571 15.9811 16.5233 15.8134C16.5355 15.4989 16.5355 15.1668 16.5233 14.8524C16.2571 14.6846 15.9695 14.5185 15.6911 14.3719C15.4127 14.5185 15.1251 14.6846 14.8589 14.8524C14.8467 15.1668 14.8467 15.4989 14.8589 15.8134C15.1251 15.9811 15.4127 16.1472 15.6911 16.2939Z" fill="#FF671F"/>
<path d="M18.6175 14.0569C18.4595 14.249 18.2682 14.4508 18.0468 14.6568C17.8803 14.528 17.7058 14.4004 17.5238 14.2747C17.506 14.0543 17.4827 13.8393 17.4544 13.6308C17.7436 13.5421 18.014 13.4773 18.2593 13.4365C18.6135 13.3776 18.8726 13.3758 19.0413 13.3986C18.9767 13.5561 18.8456 13.7796 18.6175 14.0569Z" fill="#FF671F"/>
<path d="M13.8583 16.391C13.6763 16.2654 13.5018 16.1378 13.3353 16.009C13.1139 16.215 12.9227 16.4168 12.7647 16.6089C12.5366 16.8861 12.4055 17.1096 12.3409 17.2671C12.5096 17.2899 12.7687 17.2881 13.1228 17.2292C13.3682 17.1884 13.6386 17.1237 13.9277 17.035C13.8994 16.8264 13.8761 16.6115 13.8583 16.391Z" fill="#FF671F"/>
<path d="M13.3353 14.6568C13.5018 14.528 13.6764 14.4004 13.8583 14.2747C13.8761 14.0543 13.8994 13.8393 13.9277 13.6308C13.6386 13.5421 13.3681 13.4773 13.1228 13.4365C12.7687 13.3776 12.5096 13.3758 12.3409 13.3986C12.4055 13.5561 12.5365 13.7796 12.7646 14.0569C12.9226 14.249 13.1139 14.4508 13.3353 14.6568Z" fill="#FF671F"/>
<path d="M15.6911 13.2166C15.8909 13.1218 16.0887 13.0345 16.2835 12.9547C16.2157 12.66 16.1366 12.3934 16.0492 12.1605C15.9232 11.8244 15.7952 11.5991 15.6911 11.4644C15.587 11.5991 15.459 11.8244 15.3329 12.1605C15.2456 12.3934 15.1665 12.66 15.0987 12.9547C15.2935 13.0345 15.4913 13.1218 15.6911 13.2166Z" fill="#FF671F"/>
<path d="M18.0468 16.009C17.8803 16.1378 17.7058 16.2654 17.5238 16.391C17.506 16.6115 17.4827 16.8264 17.4544 17.035C17.7435 17.1237 18.0139 17.1884 18.2593 17.2292C18.6134 17.2881 18.8725 17.2899 19.0412 17.2671C18.9766 17.1096 18.8455 16.8861 18.6175 16.6089C18.4594 16.4168 18.2682 16.215 18.0468 16.009Z" fill="#FF671F"/>
<path fill-rule="evenodd" clip-rule="evenodd" d="M6.71665 9.84442V7.4917H24.5417V9.84442C24.5417 10.0498 24.6698 10.2286 24.8303 10.3567C25.1267 10.5934 25.3167 10.9579 25.3167 11.3667V12.9167C25.3167 13.3255 25.1267 13.69 24.8303 13.9267C24.6698 14.0548 24.5417 14.2336 24.5417 14.439V16.8194C24.5417 17.0248 24.6698 17.2036 24.8303 17.3317C25.1267 17.5684 25.3167 17.9329 25.3167 18.3417V19.8917C25.3167 20.3005 25.1267 20.665 24.8303 20.9017C24.6698 21.0298 24.5417 21.2086 24.5417 21.414V23.25H6.71665V21.414C6.71665 21.2086 6.58849 21.0298 6.42801 20.9017C6.13158 20.665 5.94165 20.3005 5.94165 19.8917V18.3417C5.94165 17.9329 6.13158 17.5684 6.42801 17.3317C6.58849 17.2036 6.71665 17.0248 6.71665 16.8194V14.439C6.71665 14.2336 6.58849 14.0548 6.42801 13.9267C6.13158 13.69 5.94165 13.3255 5.94165 12.9167V11.3667C5.94165 10.9579 6.13158 10.5934 6.42801 10.3567C6.58849 10.2286 6.71665 10.0498 6.71665 9.84442ZM15.6911 20.3324C15.0324 20.3324 14.453 19.4265 14.1186 18.0565C12.7649 18.4519 11.6907 18.4031 11.3614 17.8327C11.032 17.2622 11.5268 16.3075 12.5461 15.3329C11.5268 14.3583 11.032 13.4036 11.3613 12.8331C11.6907 12.2627 12.7649 12.2139 14.1186 12.6093C14.453 11.2392 15.0324 10.3334 15.6911 10.3334C16.3498 10.3334 16.9291 11.2392 17.2635 12.6093C18.6173 12.2139 19.6915 12.2627 20.0208 12.8331C20.3502 13.4036 19.8553 14.3583 18.836 15.3329C19.8553 16.3075 20.3501 17.2622 20.0208 17.8327C19.6914 18.4031 18.6172 18.4519 17.2635 18.0565C16.9291 19.4265 16.3498 20.3324 15.6911 20.3324Z" fill="#FF671F"/>
</svg>
