<svg width="31" height="31" viewBox="0 0 31 31" fill="none" xmlns="http://www.w3.org/2000/svg">
<path d="M27.9842 12.485C27.9842 5.60059 22.3834 0 15.4988 0C8.61443 0 3.01361 5.60059 3.01361 12.485C3.01361 19.3691 8.61443 24.9697 15.4988 24.9697C22.3834 24.9697 27.9842 19.3691 27.9842 12.485ZM13.2732 17.8107L9.01059 13.5481L10.3027 12.2562L13.2732 15.2268L20.6952 7.80511L21.9873 9.09693L13.2732 17.8107Z" fill="#FF671F"/>
<path d="M3.96109 20.9417L0.181641 26.454L5.76945 25.4119L6.81152 31L10.3507 25.8381C7.78122 24.8441 5.56842 23.1289 3.96109 20.9417Z" fill="#FF671F"/>
<path d="M27.037 20.9417C25.4297 23.1289 23.2169 24.8441 20.6475 25.8381L24.1866 31L25.2287 25.4119L30.8165 26.454L27.037 20.9417Z" fill="#FF671F"/>
</svg>
