<svg width="35" height="25" viewBox="0 0 35 25" fill="none" xmlns="http://www.w3.org/2000/svg">
<path d="M26.2497 0.965942C24.0353 0.968458 21.9124 1.84923 20.3466 3.41505C18.7808 4.98085 17.9 7.10383 17.8975 9.31822C17.8975 13.7996 25.6112 23.4754 25.9395 23.8852C25.9768 23.9317 26.024 23.9692 26.0777 23.995C26.1314 24.0208 26.1903 24.0342 26.2499 24.0342C26.3094 24.0342 26.3683 24.0208 26.422 23.995C26.4757 23.9692 26.5229 23.9317 26.5602 23.8852C26.8883 23.4754 34.602 13.7996 34.602 9.31822C34.5995 7.10383 33.7187 4.98085 32.1529 3.41505C30.5871 1.84923 28.4641 0.968458 26.2497 0.965942ZM26.2497 12.8978C25.5418 12.8978 24.8497 12.6878 24.261 12.2945C23.6724 11.9012 23.2136 11.3421 22.9427 10.688C22.6717 10.034 22.6009 9.31424 22.739 8.61988C22.8771 7.92552 23.218 7.2877 23.7186 6.78709C24.2192 6.28649 24.857 5.94557 25.5514 5.80745C26.2458 5.66933 26.9655 5.74022 27.6196 6.01115C28.2736 6.28207 28.8327 6.74087 29.226 7.32953C29.6193 7.91818 29.8293 8.61025 29.8293 9.31822C29.8282 10.2672 29.4508 11.1771 28.7797 11.8482C28.1086 12.5192 27.1988 12.8967 26.2497 12.8978Z" fill="#FF671F"/>
<path d="M26.2497 12.1023C27.7873 12.1023 29.0338 10.8558 29.0338 9.31821C29.0338 7.7806 27.7873 6.53412 26.2497 6.53412C24.7121 6.53412 23.4656 7.7806 23.4656 9.31821C23.4656 10.8558 24.7121 12.1023 26.2497 12.1023Z" fill="#FF671F"/>
<path d="M7.95428 3.35229H0.795188C0.689704 3.35229 0.588541 3.3942 0.513953 3.46879C0.439364 3.54337 0.397461 3.64454 0.397461 3.75002V8.12502H7.95428V3.35229Z" fill="#FF671F"/>
<path d="M11.1364 9.3182C11.2192 9.31814 11.3 9.34401 11.3675 9.39218L13.5227 10.9316V3.35229H8.75V10.9316L10.9052 9.39218C10.9727 9.34401 11.0535 9.31814 11.1364 9.3182Z" fill="#FF671F"/>
<path d="M19.3257 3.35229H14.3184V8.12502H17.182C17.4123 6.35809 18.1579 4.69812 19.3257 3.35229Z" fill="#FF671F"/>
<path d="M17.1139 8.92047H14.3179V11.7046C14.3177 11.7775 14.2976 11.849 14.2597 11.9114C14.2219 11.9738 14.1677 12.0246 14.1031 12.0585C14.0462 12.0866 13.9837 12.1015 13.9202 12.1023C13.837 12.1035 13.7558 12.0769 13.6895 12.0267L11.1361 10.2051L8.58269 12.0267C8.52351 12.0697 8.45356 12.0955 8.38061 12.1012C8.30767 12.1068 8.23458 12.0921 8.16948 12.0588C8.10437 12.0254 8.04979 11.9746 8.0118 11.9121C7.97381 11.8496 7.9539 11.7777 7.95428 11.7046V8.92047H0.397461V23.6364C0.397765 23.7418 0.439766 23.8428 0.514289 23.9173C0.588811 23.9918 0.689798 24.0338 0.795188 24.0341H21.477C21.5824 24.0338 21.6834 23.9918 21.7579 23.9173C21.8324 23.8428 21.8744 23.7418 21.8747 23.6364V19.6949C19.6156 16.3619 17.102 12.0426 17.102 9.3182C17.102 9.18297 17.106 9.05172 17.1139 8.92047ZM5.56792 22.4432H2.3861C2.28061 22.4432 2.17945 22.4013 2.10486 22.3267C2.03027 22.2521 1.98837 22.151 1.98837 22.0455C1.98837 21.94 2.03027 21.8388 2.10486 21.7642C2.17945 21.6896 2.28061 21.6477 2.3861 21.6477H5.56792C5.6734 21.6477 5.77456 21.6896 5.84915 21.7642C5.92374 21.8388 5.96564 21.94 5.96564 22.0455C5.96564 22.151 5.92374 22.2521 5.84915 22.3267C5.77456 22.4013 5.6734 22.4432 5.56792 22.4432ZM9.54519 20.8523H2.3861C2.28061 20.8523 2.17945 20.8104 2.10486 20.7358C2.03027 20.6612 1.98837 20.56 1.98837 20.4546C1.98837 20.3491 2.03027 20.2479 2.10486 20.1733C2.17945 20.0987 2.28061 20.0568 2.3861 20.0568H9.54519C9.65067 20.0568 9.75184 20.0987 9.82642 20.1733C9.90101 20.2479 9.94292 20.3491 9.94292 20.4546C9.94292 20.56 9.90101 20.6612 9.82642 20.7358C9.75184 20.8104 9.65067 20.8523 9.54519 20.8523Z" fill="#FF671F"/>
</svg>
